<?xml version="1.0"?><svg id="uuid-14de163f-0192-4a23-a9fe-025bb280dfa9" xmlns="http://www.w3.org/2000/svg" viewBox="0 0 500 500"><path id="uuid-5bc27e36-eab0-4551-af00-6b9b62241160" d="M250,36.71c-59.99,0-121.75,8.89-177.74,26.66v195.07c0,102.2,71.1,170.63,177.74,204.85,106.65-34.22,177.74-102.2,177.74-204.85V63.37c-56.43-17.77-118.2-26.66-177.74-26.66M338.87,81.14v168.86l-88.87-53.32-88.87,53.32V81.14c26.66-8.89,88.87-8.89,88.87-8.89,0,0,62.21,0,88.87,8.89M250,425.97c-35.99-12.44-73.76-31.99-101.31-62.21l101.31-61.32,101.31,61.32c-27.99,29.77-65.77,49.32-101.31,62.21" style="fill:#4162fe; stroke-width:0px;"></path></svg>