<?xml version="1.0"?>
<svg id="uuid-39d5d1f8-d5c5-4ba5-994d-63742f003f3c" data-name="Layer 1" xmlns="http://www.w3.org/2000/svg" viewBox="0 0 193.5 48">
  <defs></defs>
  <polygon fill="#FFFFFF" points="81.56 13.78 87.56 13.78 80.5 38.48 74.38 38.48 69.8 23.51 65.22 38.48 59.1 38.48 51.98 13.78 58.59 13.78 62.73 28.94 67.14 13.78 73.05 13.78 77.46 29 81.56 13.78"></polygon>
  <path fill="#FFFFFF" d="M95.09,31.02c1.24,1.28,2.8,1.93,4.67,1.93s3.44-.64,4.7-1.93c1.26-1.28,1.89-2.91,1.89-4.89s-.63-3.61-1.89-4.89c-1.26-1.28-2.82-1.93-4.7-1.93s-3.43.64-4.67,1.93c-1.24,1.28-1.86,2.91-1.86,4.89s.62,3.61,1.86,4.89M108.86,35.39c-2.49,2.52-5.52,3.78-9.1,3.78s-6.61-1.26-9.08-3.78c-2.47-2.52-3.7-5.6-3.7-9.26s1.23-6.74,3.7-9.26c2.47-2.52,5.49-3.78,9.08-3.78s6.62,1.26,9.1,3.78c2.48,2.52,3.73,5.6,3.73,9.26s-1.24,6.74-3.73,9.26"></path>
  <path fill="#FFFFFF" d="M128.36,13.09c2.65,0,4.83.91,6.56,2.72,1.73,1.81,2.59,4.31,2.59,7.51v15.16h-6.24v-14.37c0-1.65-.44-2.91-1.31-3.78-.87-.87-2.03-1.31-3.49-1.31-1.62,0-2.9.51-3.87,1.53-.97,1.02-1.45,2.55-1.45,4.59v13.33h-6.25V13.78h6.25v2.76c1.52-2.3,3.92-3.46,7.21-3.46"></path>
  <path fill="#FFFFFF" d="M19.6,43.78c-3.95-1.42-8.12-3.62-11.17-6.98l11.17-6.89,11.17,6.89c-3.05,3.36-7.23,5.56-11.17,6.98M29.41,5v19l-9.8-6-9.8,6V5c2.94-1,9.8-1,9.8-1,0,0,6.86,0,9.8,1M19.6,0C13,0,6.19,1,0,3v21.96c0,11.52,7.84,19.2,19.6,23.04,11.76-3.84,19.6-11.52,19.6-23.04V3C33.02,1,26.21,0,19.6,0"></path>
  <path fill="#FFFFFF" d="M157.59,31.1c-1.26,1.3-2.86,1.95-4.79,1.95s-3.54-.65-4.82-1.95c-1.28-1.3-1.91-2.97-1.91-5.01s.64-3.71,1.91-5.01c1.27-1.3,2.88-1.95,4.82-1.95s3.54.65,4.79,1.95c1.26,1.3,1.89,2.97,1.89,5.01s-.63,3.71-1.89,5.01M159.48,5.9v10.75c-1.84-2.4-4.45-3.61-7.84-3.61s-6.04,1.26-8.35,3.78c-2.31,2.52-3.46,5.6-3.46,9.26s1.15,6.74,3.46,9.26c2.31,2.52,5.09,3.78,8.35,3.78s6-1.2,7.84-3.61v2.91h6.24V3.9l-6.24,2Z"></path>
  <path fill="#FFFFFF" d="M174.55,23.9c.35-1.58,1.08-2.81,2.18-3.68,1.1-.87,2.48-1.31,4.16-1.31,1.42,0,2.69.41,3.8,1.23,1.11.82,1.85,2.07,2.2,3.75h-12.34ZM186.11,31.87c-1.17,1.07-2.71,1.61-4.64,1.61-3.71,0-5.99-1.55-6.83-4.64h18.25c.16-.92.24-1.8.24-2.62,0-3.69-1.15-6.78-3.46-9.28-2.31-2.5-5.24-3.75-8.79-3.75-3.74,0-6.81,1.24-9.2,3.73-2.39,2.49-3.58,5.59-3.58,9.31s1.21,6.87,3.63,9.33c2.42,2.47,5.63,3.7,9.63,3.7s7.26-1.35,9.6-4.04l-4.86-3.35h0Z"></path>
</svg>